<?xml version="1.0" encoding="UTF-8"?><svg id="Layer_2" xmlns="http://www.w3.org/2000/svg" viewBox="0 0 431.53 255.74"><defs><style>.cls-1{fill:#1b1464;stroke-width:0px;}</style></defs><g id="Layer_3"><path class="cls-1" d="m169.01,51.74c-32.57,1.59-65.96,3-96.8,14.56C15.06,86.48-22.76,154.38,28.89,201.92c19.06,17.66,43.3,29.12,67.7,37.65,68.97,23.11,144.19,15.49,213.24-3.55,31.2-8.79,63.31-19.55,88.12-41.09,32.07-27.76,37.2-67.96,18.26-105.06-9.46-18.69-23.94-34.85-41.53-46.22-2.11-1.55-5.98-3.67-8.25-5.11-35.69-20.22-77.08-26.45-117.38-30.64-38.91-3.95-78.77-5.6-117.12,3C81.55,21.86,32.24,55.05,16.31,105.99c0,0-.48-.14-.48-.14,7.02-25.59,23.46-48,44-64.57C112.54-1.71,184.86-3.77,249.56,2.82c51.97,5.04,108.64,14.41,147.43,52.46,33.74,33.51,48.82,87.82,17.13,127.82-24.31,30.3-62.87,43.42-99.02,53.47-46.02,12.6-93.71,20.45-141.54,19.02-39.62-1.11-79.43-9.52-114.8-27.81C21.83,209.11-9.56,176,2.7,131.7c7.35-25.9,26.7-47.61,50.21-60.21,8.87-4.63,18.16-8.27,27.75-11.05,15.88-4.56,32.4-6.82,48.85-7.91,13.16-.94,26.32-1.15,39.48-1.3,0,0,.01.5.01.5h0Z"/></g></svg>