<?xml version="1.0" encoding="UTF-8"?><svg id="Layer_2" xmlns="http://www.w3.org/2000/svg" viewBox="0 0 94.4 94.4"><defs><style>.cls-1{fill:#f2f2e8;}.cls-1,.cls-2,.cls-3{stroke-width:0px;}.cls-2{fill:#1b1464;}.cls-3{fill:#fff;}</style></defs><g id="Layer_2-2"><circle class="cls-3" cx="47.2" cy="47.2" r="46.2"/><path class="cls-2" d="M47.2,2c24.96,0,45.2,20.24,45.2,45.2s-20.24,45.2-45.2,45.2S2,72.16,2,47.2,22.24,2,47.2,2M47.2,0C21.17,0,0,21.17,0,47.2s21.17,47.2,47.2,47.2,47.2-21.17,47.2-47.2S73.23,0,47.2,0h0Z"/><g id="Layer_1-2"><path class="cls-1" d="M47.2,2h0c24.96,0,45.2,20.24,45.2,45.2h0c0,24.96-20.24,45.2-45.2,45.2h0c-24.96,0-45.2-20.24-45.2-45.2h0C2,22.24,22.24,2,47.2,2Z"/><path class="cls-2" d="M47.2,87.3c-1.1,0-2-.9-2-2,0-19.9-16.19-36.1-36.1-36.1-1.1,0-2-.9-2-2s.9-2,2-2c19.9,0,36.1-16.19,36.1-36.1,0-1.1.9-2,2-2s2,.9,2,2c0,19.9,16.19,36.1,36.1,36.1,1.1,0,2,.9,2,2s-.9,2-2,2c-19.9,0-36.1,16.19-36.1,36.1,0,1.1-.9,2-2,2Z"/><path class="cls-1" d="M47.2,9.11c0,21.04,17.06,38.1,38.1,38.1h0c-21.04,0-38.1,17.06-38.1,38.1,0-21.04-17.06-38.1-38.1-38.1h0c21.04,0,38.1-17.06,38.1-38.1M47.2,5.11c-2.21,0-4,1.79-4,4,0,18.8-15.3,34.1-34.1,34.1-2.21,0-4,1.79-4,4s1.79,4,4,4c18.8,0,34.1,15.3,34.1,34.1,0,2.21,1.79,4,4,4s4-1.79,4-4c0-18.8,15.3-34.1,34.1-34.1,2.21,0,4-1.79,4-4s-1.79-4-4-4c-18.8,0-34.1-15.3-34.1-34.1,0-2.21-1.79-4-4-4h0Z"/></g></g></svg>