<?xml version="1.0" encoding="UTF-8"?><svg id="Layer_2" xmlns="http://www.w3.org/2000/svg" viewBox="0 0 90.4 90.4"><defs><style>.cls-1{fill:#f2f2e8;}.cls-1,.cls-2{stroke-width:0px;}.cls-2{fill:#1b1464;}</style></defs><g id="Layer_1-2"><rect class="cls-1" x="0" y="0" width="90.4" height="90.4" rx="45.2" ry="45.2"/><path class="cls-2" d="m45.2,85.3c-1.1,0-2-.9-2-2,0-19.9-16.19-36.1-36.1-36.1-1.1,0-2-.9-2-2s.9-2,2-2c19.9,0,36.1-16.19,36.1-36.1,0-1.1.9-2,2-2s2,.9,2,2c0,19.9,16.19,36.1,36.1,36.1,1.1,0,2,.9,2,2s-.9,2-2,2c-19.9,0-36.1,16.19-36.1,36.1,0,1.1-.9,2-2,2Z"/><path class="cls-1" d="m45.2,7.11c0,21.04,17.06,38.1,38.1,38.1h0c-21.04,0-38.1,17.06-38.1,38.1,0-21.04-17.06-38.1-38.1-38.1h0c21.04,0,38.1-17.06,38.1-38.1m0-4c-2.21,0-4,1.79-4,4,0,18.8-15.3,34.1-34.1,34.1-2.21,0-4,1.79-4,4s1.79,4,4,4c18.8,0,34.1,15.3,34.1,34.1,0,2.21,1.79,4,4,4s4-1.79,4-4c0-18.8,15.3-34.1,34.1-34.1,2.21,0,4-1.79,4-4s-1.79-4-4-4c-18.8,0-34.1-15.3-34.1-34.1,0-2.21-1.79-4-4-4h0Z"/></g></svg>