<?xml version="1.0" encoding="UTF-8"?><svg id="Layer_2" xmlns="https://www.w3.org/2000/svg" viewBox="0 0 746.35 204.29"><defs><style>.cls-1{font-family:HendersonSlabBasicBlack, 'Henderson Slab';font-size:72px;}.cls-1,.cls-2,.cls-3{fill:#1b1464;}.cls-2{stroke:#f2f2e8;stroke-width:4px;}.cls-2,.cls-4{stroke-miterlimit:10;}.cls-5{letter-spacing:.2em;}.cls-6{letter-spacing:-.01em;}.cls-4{fill:#f2f2e8;stroke:#1b1464;}.cls-7{letter-spacing:-.02em;}.cls-8{letter-spacing:-.02em;}.cls-9{letter-spacing:0em;}.cls-10{letter-spacing:0em;}.cls-11,.cls-3{stroke-width:0px;}</style></defs><g id="Layer_1-2"><path class="cls-2" d="m102.15,202.29c-55.22,0-100.15-44.93-100.15-100.15S46.93,2,102.15,2h542.05c55.22,0,100.15,44.93,100.15,100.15s-44.93,100.15-100.15,100.15H102.15Z"/><rect class="cls-4" x="22" y="22" width="702.35" height="160.29" rx="80.15" ry="80.15"/><text class="cls-1" transform="translate(84.69 101.15)"><tspan class="cls-6" x="0" y="0">D</tspan><tspan x="64.26" y="0">AIS</tspan><tspan class="cls-5" x="228.79" y="0">Y</tspan><tspan class="cls-6" x="309.67" y="0">B</tspan><tspan x="373.78" y="0">ELL</tspan></text><text class="cls-1" transform="translate(84.69 158.15) scale(1.07 1)"><tspan x="0" y="0">P</tspan><tspan class="cls-8" x="64.57" y="0">O</tspan><tspan x="124.85" y="0">RT</tspan><tspan class="cls-9" x="251.85" y="0">F</tspan><tspan class="cls-8" x="314.35" y="0">O</tspan><tspan x="374.63" y="0">L</tspan><tspan class="cls-7" x="437.67" y="0">I</tspan><tspan class="cls-10" x="473.05" y="0">O</tspan></text><path class="cls-3" d="m384.52,89.94h0c0-6.27-5.08-11.35-11.35-11.35v-.28c6.27,0,11.35-5.08,11.35-11.35h0c0,6.27,5.08,11.35,11.35,11.35v.28c-6.27,0-11.35,5.08-11.35,11.35Z"/><path class="cls-11" d="m610.92,168.51c1.93,0,1.93-3,0-3s-1.93,3,0,3h0Z"/></g></svg>