<?xml version="1.0" encoding="UTF-8"?><svg id="Layer_2" xmlns="http://www.w3.org/2000/svg" viewBox="0 0 90.4 90.4"><defs><style>.cls-1{fill:#f2f2e8;}.cls-1,.cls-2{stroke-width:0px;}.cls-2{fill:#1b1464;}</style></defs><g id="Layer_2-2"><g id="Layer_1-2"><path class="cls-2" d="M45.2,0h0c24.96,0,45.2,20.24,45.2,45.2h0c0,24.96-20.24,45.2-45.2,45.2h0C20.24,90.4,0,70.16,0,45.2h0C0,20.24,20.24,0,45.2,0Z"/><path class="cls-1" d="M76.47,45.55c-.02-.33-.35-.6-.66-.77-1.31-.71-2.83-.67-4.24-1.13-1.57-.52-3.1-1.13-4.59-1.85-2.89-1.38-5.6-3.13-8.05-5.19-3.35-2.83-6.21-6.23-8.42-10.02-1.11-1.91-2.06-3.93-2.82-6.01-.29-.8-.56-1.61-.8-2.43-.21-.71-.25-1.45-.42-2.18-.15-.64-.76-1.49-1.48-.93-.19.15-.32.37-.43.58-.44.87-.5,1.79-.77,2.7-.22.75-.47,1.49-.74,2.22-.76,2.08-1.7,4.08-2.81,6-2.2,3.78-5.04,7.18-8.38,10.01-2.7,2.28-5.72,4.18-8.94,5.63-1.58.71-3.21,1.32-4.88,1.81-.81.24-3.95.47-4.12,1.38-.22,1.24,3.42,1.54,4.27,1.8,1.71.51,3.38,1.14,4.99,1.88,3.2,1.47,6.2,3.38,8.87,5.68,3.12,2.67,5.8,5.85,7.91,9.38,1.08,1.8,2.01,3.68,2.77,5.63.55,1.41.97,2.77,1.29,4.25.06.29.13.59.26.85s.34.51.62.61c.5.19,1.07-.12,1.37-.56.34-.5.38-1.12.53-1.68.17-.66.41-1.3.63-1.95.5-1.46,1.09-2.89,1.77-4.28,1.38-2.84,3.11-5.5,5.14-7.91,2.74-3.24,6.01-6.02,9.65-8.18,1.82-1.08,3.73-2.01,5.71-2.78,1.9-.74,3.86-1.22,5.83-1.76.2-.05.4-.11.57-.22s.32-.28.35-.48c0-.04,0-.07,0-.11Z"/></g></g></svg>