<?xml version="1.0" encoding="UTF-8"?><svg id="Layer_2" xmlns="http://www.w3.org/2000/svg" xmlns:xlink="http://www.w3.org/1999/xlink" viewBox="0 0 90.4 90.4"><defs><style>.cls-1{fill:url(#linear-gradient);}.cls-1,.cls-2{stroke-width:0px;}.cls-2{fill:#009840;}</style><linearGradient id="linear-gradient" x1="45.37" y1="1.23" x2="45" y2="97.36" gradientUnits="userSpaceOnUse"><stop offset="0" stop-color="#db9cba"/><stop offset=".15" stop-color="#f0bca4"/><stop offset=".17" stop-color="#f0bea7"/><stop offset=".39" stop-color="#f6dacd"/><stop offset=".59" stop-color="#fbeee8"/><stop offset=".77" stop-color="#fefaf9"/><stop offset=".9" stop-color="#fff"/></linearGradient></defs><g id="Layer_1-2"><path class="cls-1" d="M45.2,0h0c24.96,0,45.2,20.24,45.2,45.2h0c0,24.96-20.24,45.2-45.2,45.2h0C20.24,90.4,0,70.16,0,45.2h0C0,20.24,20.24,0,45.2,0Z"/><path class="cls-2" d="M83.3,45.21c-21.04,0-38.1-17.06-38.1-38.1,0,21.04-17.06,38.1-38.1,38.1,21.04,0,38.1,17.06,38.1,38.1,0-21.04,17.06-38.1,38.1-38.1Z"/></g></svg>